# xmcd
#
# Track frame offsets:
#	150
#	9244
#	18379
#	30217
#	42275
#	54215
#	66041
#	78033
#	89910
#	101591
#	113216
#	124936
#	136376
#	147812
#	158901
#	168953
#	177802
#	187092
#	191024
#	199696
#	209653
#	218240
#	232157
#	242823
#	254777
#	257151
#	268826
#	279509
#	282376
#	292947
#	303056
#	313705
#	323554
#	332894
#	342447
#
# Disc length: 4699 seconds
#
# Revision: 1
# Processed by: cddbd v1.5.2PL0 Copyright (c) Steve Scherf et al.
# Submitted via: audiograbber 1.83.01
#
DISCID=0c125923
DTITLE=Jerry Lee Lewis - Jerry Lee Lewis At Sun Records [CD 4)
DYEAR=2015
DGENRE=Rock and Roll
TTITLE0=Ooby Dooby (1) [mono]
TTITLE1=Ooby Dooby (2) [mono]
TTITLE2=Why Should I Cry Over You [mono]
TTITLE3=I'm Feelin' Sorry (2.1) [mono]
TTITLE4=I'm Feelin' Sorry (2.2) [chat and take] [mono]
TTITLE5=I'm Feelin' Sorry (2.3) [mono]
TTITLE6=I'm Feelin' Sorry (2.4) [chat and take] [mono]
TTITLE7=I'm Feelin' Sorry (2.5) [mono]
TTITLE8=I'm Feelin' Sorry (2.6) [distorted] [mono]
TTITLE9=I'm Feelin' Sorry (2.7) [distorted] [mono]
TTITLE10=I'm Feelin' Sorry (2.8) [mono]
TTITLE11=I'm Feelin' Sorry (2.9) [mono]
TTITLE12=I'm Feelin' Sorry (2.10) [mono]
TTITLE13=Mean Woman Blues [master] [mono]
TTITLE14=Great Balls Of Fire (2.1) [2 false starts and take] [mono]
TTITLE15=Great Balls Of Fire (2.2) [mono]
TTITLE16=Great Balls Of Fire (2.3) [false start and take] [mono]
TTITLE17=Studio chatter [mono]
TTITLE18=Great Balls Of Fire (2.4) [mono]
TTITLE19=Great Balls Of Fire (2.5) [chat and take] [mono]
TTITLE20=Great Balls Of Fire (2.6) [master] [mono]
TTITLE21=I Love You Because (1) [mono]
TTITLE22=I Love You So Much It Hurts [mono]
TTITLE23=I'm Sorry I'm Not Sorry [mono]
TTITLE24=Sexy Ways (1.1) [false start] [mono]
TTITLE25=Sexy Ways (Cool Cool Ways) (1.2) [mono]
TTITLE26=Down The Line (1) [mono]
TTITLE27=Down The Line (2) [2 false starts] [mono]
TTITLE28=Down The Line (3) [chat, take, chat] [mono]
TTITLE29=Down The Line (4) [mono]
TTITLE30=Down The Line (5) [mono]
TTITLE31=Down The Line (6) [mono]
TTITLE32=Down The Line (7) [mono]
TTITLE33=Down The Line (8) [mono]
TTITLE34=Down The Line (9) [master] [mono]
EXTD=
EXTT0=
EXTT1=
EXTT2=
EXTT3=
EXTT4=
EXTT5=
EXTT6=
EXTT7=
EXTT8=
EXTT9=
EXTT10=
EXTT11=
EXTT12=
EXTT13=
EXTT14=
EXTT15=
EXTT16=
EXTT17=
EXTT18=
EXTT19=
EXTT20=
EXTT21=
EXTT22=
EXTT23=
EXTT24=
EXTT25=
EXTT26=
EXTT27=
EXTT28=
EXTT29=
EXTT30=
EXTT31=
EXTT32=
EXTT33=
EXTT34=
PLAYORDER=
